<svg width="469" height="347" viewBox="0 0 469 347" fill="none" xmlns="http://www.w3.org/2000/svg">
<path d="M147.067 8.354L147.067 8.35399C165.303 3.98102 206.823 1.08892 247.601 1.69781C267.967 2.00191 288.087 3.17868 304.958 5.46712C321.91 7.7665 335.33 11.1592 342.497 15.7519L343.288 14.5183L342.497 15.7519C365.254 30.3321 375.904 56.4166 373.045 80.5962C370.194 104.704 353.914 126.928 322.636 133.894C304.128 138.015 260.417 139.648 218.073 138.273C196.931 137.586 176.196 136.152 159.196 133.917C150.696 132.8 143.152 131.485 136.969 129.971C130.755 128.448 126.035 126.752 123.099 124.922C101.161 111.252 87.909 84.4859 94.5216 55.9036C98.0601 40.6233 104.01 30.5305 112.556 23.3771C121.142 16.1905 132.489 11.8495 147.067 8.354Z" stroke="#DEDEDE" stroke-width="2.93032"/>
<path d="M331.65 246.142L331.65 246.142C239.275 192.653 169.157 229.303 124.469 252.661C116.058 257.057 108.547 260.983 101.958 263.748C99.6982 258.016 97.7679 254.211 95.9712 251.434C94.016 248.412 92.246 246.651 90.4866 244.992C90.3235 244.838 90.161 244.685 89.9987 244.533C88.432 243.063 86.8879 241.614 85.1071 239.269C83.2895 236.877 81.2058 233.522 78.6778 228.269C91.8649 222.532 102.635 216.57 112.662 210.866C113.834 210.199 114.995 209.536 116.148 208.878C125.222 203.698 133.804 198.799 143.271 194.493C164.534 184.821 190.326 178.112 235.731 178.49C297.681 179.005 328.515 196.188 363.088 215.453C370.671 219.679 378.434 224.005 386.745 228.277C384.465 237.569 381.789 242.553 378.009 247.099C376.012 249.5 373.693 251.795 370.883 254.567L370.757 254.692C368.17 257.244 365.199 260.174 361.779 263.886C359.071 262.613 357.381 261.832 356.311 261.337C356.097 261.239 355.909 261.152 355.742 261.074C354.917 260.692 354.687 260.574 354.636 260.548C354.575 260.491 354.378 260.313 354.267 260.222C354.034 260.031 353.699 259.778 353.157 259.408C352.076 258.67 350.107 257.42 346.358 255.193C343.717 253.624 341.79 252.396 339.865 251.17C339.66 251.039 339.455 250.909 339.249 250.778C337.107 249.415 334.887 248.016 331.65 246.142Z" stroke="#DEDEDE" stroke-width="2.93032"/>
<path d="M404.746 246.418L404.746 246.418C415.873 241.502 427.148 244.027 437.102 251.042C447.084 258.076 455.613 269.561 460.974 282.2C466.338 294.848 468.451 308.462 465.838 319.718C463.249 330.872 456.017 339.783 442.391 343.308C411.984 351.17 389.62 329.252 380.823 308.64L380.823 308.64C374.17 293.059 373.525 280.519 377.712 270.454C381.905 260.377 391.075 252.458 404.746 246.418ZM404.154 245.079L404.154 245.078L404.154 245.079Z" stroke="#DEDEDE" stroke-width="2.93032"/>
<path d="M59.8939 242.677C71.058 245.378 81.3804 253.686 87.8708 265.929C96.7484 291.982 89.8372 317.001 73.7351 330.957C57.7834 344.782 32.4442 348.048 3.60912 330.063C0.950743 315.813 2.68593 300.636 7.042 287.01C11.4639 273.178 18.5493 261.059 26.3235 253.211C36.6121 242.828 48.7492 239.98 59.8939 242.677Z" stroke="#DEDEDE" stroke-width="2.93032"/>
</svg>
