<svg width="403" height="266" viewBox="0 0 403 266" fill="none" xmlns="http://www.w3.org/2000/svg">
<g opacity="0.3">
<path d="M146.196 8.69128L146.196 8.69127C164.432 4.3183 205.952 1.4262 246.73 2.03509C267.096 2.33919 287.215 3.51596 304.087 5.8044C321.039 8.10378 334.459 11.4965 341.626 16.0892L342.416 14.8556L341.626 16.0892C364.382 30.6693 375.032 56.7539 372.173 80.9335C369.323 105.042 353.042 127.266 321.765 134.231C303.257 138.353 259.546 139.985 217.202 138.61C196.06 137.924 175.325 136.489 158.325 134.254C149.824 133.137 142.28 131.822 136.098 130.308C129.883 128.786 125.164 127.089 122.228 125.26C100.289 111.589 87.0377 84.8231 93.6503 56.2409C97.1888 40.9606 103.138 30.8678 111.685 23.7144C120.27 16.5278 131.617 12.1868 146.196 8.69128Z" stroke="white" stroke-width="2.93032"/>
<path d="M330.779 246.479L330.779 246.479C238.404 192.99 168.286 229.64 123.598 252.998C115.186 257.394 107.676 261.32 101.087 264.085C98.8269 258.353 96.8966 254.548 95.0998 251.771C93.1447 248.75 91.3747 246.988 89.6153 245.329C89.4522 245.175 89.2897 245.023 89.1274 244.87C87.5607 243.4 86.0165 241.951 84.2357 239.606C82.4182 237.214 80.3344 233.859 77.8064 228.606C90.9935 222.869 101.764 216.907 111.79 211.203C112.962 210.536 114.124 209.873 115.277 209.215C124.35 204.035 132.933 199.136 142.4 194.83C163.662 185.158 189.455 178.449 234.86 178.827C296.809 179.342 327.644 196.525 362.217 215.79C369.8 220.016 377.563 224.342 385.874 228.614C383.593 237.906 380.918 242.89 377.138 247.436C375.141 249.837 372.822 252.133 370.012 254.904L369.886 255.029C367.298 257.581 364.327 260.511 360.908 264.223C358.2 262.95 356.51 262.169 355.439 261.675C355.226 261.576 355.037 261.489 354.87 261.411C354.046 261.029 353.816 260.911 353.765 260.885C353.703 260.828 353.506 260.65 353.396 260.559C353.163 260.368 352.827 260.115 352.285 259.745C351.205 259.007 349.236 257.757 345.487 255.53C342.846 253.961 340.919 252.733 338.993 251.507C338.789 251.376 338.584 251.246 338.378 251.115C336.236 249.752 334.015 248.354 330.779 246.479Z" stroke="white" stroke-width="2.93032"/>
<path d="M403.875 246.756L403.875 246.756C415.001 241.839 426.277 244.365 436.231 251.379C446.213 258.413 454.741 269.898 460.102 282.538C465.467 295.185 467.58 308.799 464.967 320.055C462.377 331.209 455.146 340.121 441.52 343.645C411.113 351.508 388.748 329.59 379.951 308.977L379.951 308.977C373.298 293.396 372.653 280.856 376.841 270.791C381.033 260.714 390.203 252.796 403.875 246.756ZM403.283 245.416L403.283 245.415L403.283 245.416Z" stroke="white" stroke-width="2.93032"/>
<path d="M59.0225 243.014C70.1867 245.715 80.509 254.023 86.9995 266.266C95.877 292.32 88.9659 317.338 72.8637 331.294C56.912 345.12 31.5728 348.386 2.73778 330.4C0.0794046 316.15 1.8146 300.974 6.17066 287.347C10.5925 273.515 17.678 261.396 25.4521 253.548C35.7408 243.166 47.8779 240.318 59.0225 243.014Z" stroke="white" stroke-width="2.93032"/>
</g>
</svg>
