<svg width="51" height="51" viewBox="0 0 51 51" fill="none" xmlns="http://www.w3.org/2000/svg">
<path d="M4.60131 25.9606C4.04877 25.9606 3.51887 25.7411 3.12817 25.3504C2.73747 24.9597 2.51797 24.4298 2.51797 23.8772V17.6272C2.51797 16.5222 2.95696 15.4624 3.73836 14.681C4.51976 13.8996 5.57957 13.4606 6.68464 13.4606H37.9346C39.0397 13.4606 40.0995 13.8996 40.8809 14.681C41.6623 15.4624 42.1013 16.5222 42.1013 17.6272V23.8772C42.1013 24.4298 41.8818 24.9597 41.4911 25.3504C41.1004 25.7411 40.5705 25.9606 40.018 25.9606H4.60131Z" fill="#F9A4A5"/>
<path d="M37.9346 13.4606H6.68464C5.57957 13.4606 4.51976 13.8996 3.73836 14.681C2.95696 15.4624 2.51797 16.5222 2.51797 17.6272V22.3147C2.51797 21.2097 2.95696 20.1499 3.73836 19.3685C4.51976 18.5871 5.57957 18.1481 6.68464 18.1481H37.9346C39.0397 18.1481 40.0995 18.5871 40.8809 19.3685C41.6623 20.1499 42.1013 21.2097 42.1013 22.3147V17.6272C42.1013 16.5222 41.6623 15.4624 40.8809 14.681C40.0995 13.8996 39.0397 13.4606 37.9346 13.4606Z" fill="#F7DCDC"/>
<path d="M7.72632 13.4605L8.44923 6.86466C8.53598 5.8231 9.011 4.85218 9.78009 4.14445C10.5492 3.43672 11.5562 3.04388 12.6013 3.04382H32.018C33.0632 3.04388 34.0701 3.43672 34.8392 4.14445C35.6083 4.85218 36.0833 5.8231 36.1701 6.86466L36.893 13.4605H7.72632Z" fill="#F9A4A5"/>
<path d="M28.2992 3.04382H12.6013C11.5562 3.04388 10.5492 3.43672 9.78009 4.14445C9.011 4.85218 8.53598 5.8231 8.44923 6.86466L7.72632 13.4605H17.8826L28.2992 3.04382Z" fill="#F7DCDC"/>
<path d="M6.68466 19.7105C6.68466 20.2631 6.90416 20.793 7.29486 21.1837C7.68556 21.5744 8.21546 21.7939 8.768 21.7939C9.32053 21.7939 9.85043 21.5744 10.2411 21.1837C10.6318 20.793 10.8513 20.2631 10.8513 19.7105C10.8513 19.158 10.6318 18.6281 10.2411 18.2374C9.85043 17.8467 9.32053 17.6272 8.768 17.6272C8.21546 17.6272 7.68556 17.8467 7.29486 18.2374C6.90416 18.6281 6.68466 19.158 6.68466 19.7105Z" fill="#F9A4A5"/>
<path d="M12.9347 25.9606V29.0856C12.9347 29.9144 12.6054 30.7092 12.0194 31.2953C11.4333 31.8813 10.6385 32.2106 9.80966 32.2106C8.98086 32.2106 8.186 31.8813 7.59995 31.2953C7.0139 30.7092 6.68466 29.9144 6.68466 29.0856V25.9606H12.9347Z" fill="#F9A4A5"/>
<path d="M20.2263 25.9606H4.60131C4.04877 25.9606 3.51887 25.7411 3.12817 25.3504C2.73747 24.9597 2.51797 24.4298 2.51797 23.8772V17.6272C2.51797 16.5222 2.95696 15.4624 3.73836 14.681C4.51976 13.8996 5.57957 13.4606 6.68464 13.4606H37.9346C39.0397 13.4606 40.0995 13.8996 40.8809 14.681C41.6623 15.4624 42.1013 16.5222 42.1013 17.6272V18.6689" stroke="#00303E" stroke-width="1.25" stroke-linecap="round" stroke-linejoin="round"/>
<path d="M7.72632 13.4605L8.44923 6.86466C8.53598 5.8231 9.011 4.85218 9.78009 4.14445C10.5492 3.43672 11.5562 3.04388 12.6013 3.04382H32.018C33.0631 3.04388 34.0701 3.43672 34.8392 4.14445C35.6083 4.85218 36.0833 5.8231 36.1701 6.86466L36.893 13.4605" stroke="#00303E" stroke-width="1.25" stroke-linecap="round" stroke-linejoin="round"/>
<path d="M6.68466 19.7105C6.68466 20.2631 6.90416 20.793 7.29486 21.1837C7.68556 21.5744 8.21546 21.7939 8.768 21.7939C9.32053 21.7939 9.85043 21.5744 10.2411 21.1837C10.6318 20.793 10.8513 20.2631 10.8513 19.7105C10.8513 19.158 10.6318 18.6281 10.2411 18.2374C9.85043 17.8467 9.32053 17.6272 8.768 17.6272C8.21546 17.6272 7.68556 17.8467 7.29486 18.2374C6.90416 18.6281 6.68466 19.158 6.68466 19.7105Z" stroke="#00303E" stroke-width="1.25" stroke-linecap="round" stroke-linejoin="round"/>
<path d="M12.9347 25.9606V29.0856C12.9347 29.9144 12.6054 30.7092 12.0194 31.2953C11.4333 31.8813 10.6385 32.2106 9.80966 32.2106C8.98086 32.2106 8.186 31.8813 7.59995 31.2953C7.0139 30.7092 6.68466 29.9144 6.68466 29.0856V25.9606" stroke="#00303E" stroke-width="1.25" stroke-linecap="round" stroke-linejoin="round"/>
<path d="M2.51797 9.29382L7.72631 13.4605" stroke="#00303E" stroke-width="1.25" stroke-linecap="round" stroke-linejoin="round"/>
<path d="M42.1013 9.29382L36.893 13.4605" stroke="#00303E" stroke-width="1.25" stroke-linecap="round" stroke-linejoin="round"/>
<path d="M35.8513 46.7938C38.3236 46.7938 40.7403 46.0607 42.7959 44.6872C44.8516 43.3137 46.4537 41.3614 47.3998 39.0774C48.3459 36.7933 48.5935 34.28 48.1111 31.8552C47.6288 29.4304 46.4383 27.2031 44.6902 25.455C42.942 23.7068 40.7147 22.5163 38.2899 22.034C35.8652 21.5517 33.3519 21.7992 31.0678 22.7453C28.7837 23.6914 26.8315 25.2936 25.4579 27.3492C24.0844 29.4048 23.3513 31.8216 23.3513 34.2938C23.3513 37.609 24.6683 40.7885 27.0125 43.1327C29.3567 45.4769 32.5361 46.7938 35.8513 46.7938Z" fill="#F9A4A5"/>
<path d="M35.8513 21.7938C33.3072 21.7918 30.8231 22.5668 28.7314 24.0151C26.6397 25.4634 25.0402 27.516 24.147 29.8981C23.2537 32.2803 23.1092 34.8785 23.7328 37.345C24.3565 39.8115 25.7185 42.0288 27.6367 43.7001L45.2576 26.0792C44.0878 24.7333 42.6427 23.6541 41.0199 22.9148C39.3972 22.1755 37.6346 21.7932 35.8513 21.7938Z" fill="#F7DCDC"/>
<path d="M35.8513 46.7938C38.3236 46.7938 40.7403 46.0607 42.7959 44.6872C44.8516 43.3137 46.4537 41.3614 47.3998 39.0774C48.3459 36.7933 48.5934 34.28 48.1111 31.8552C47.6288 29.4304 46.4383 27.2031 44.6902 25.455C42.942 23.7068 40.7147 22.5163 38.2899 22.034C35.8652 21.5517 33.3519 21.7992 31.0678 22.7453C28.7837 23.6914 26.8315 25.2936 25.4579 27.3492C24.0844 29.4048 23.3513 31.8216 23.3513 34.2938C23.3513 37.609 24.6683 40.7885 27.0125 43.1327C29.3567 45.4769 32.5361 46.7938 35.8513 46.7938Z" stroke="#00303E" stroke-width="1.25" stroke-linecap="round" stroke-linejoin="round"/>
<path d="M41.4221 30.6688L35.3805 38.7397C35.2461 38.9186 35.0749 39.0666 34.8783 39.1736C34.6818 39.2806 34.4646 39.3442 34.2414 39.36C34.0182 39.3758 33.7942 39.3434 33.5846 39.2652C33.3749 39.1869 33.1845 39.0645 33.0263 38.9063L29.9013 35.7813" stroke="#00303E" stroke-width="1.25" stroke-linecap="round" stroke-linejoin="round"/>
</svg>
