<svg width="51" height="51" viewBox="0 0 51 51" fill="none" xmlns="http://www.w3.org/2000/svg">
<g clip-path="url(#clip0_87_411)">
<path d="M3.22106 26.4813H5.30439V36.898H3.22106C2.66852 36.898 2.13862 36.6785 1.74792 36.2878C1.35722 35.8971 1.13772 35.3672 1.13772 34.8147V28.5647C1.13772 28.0121 1.35722 27.4822 1.74792 27.0915C2.13862 26.7008 2.66852 26.4813 3.22106 26.4813Z" fill="#F9A4A5" stroke="#00303E" stroke-width="1.25" stroke-linecap="round" stroke-linejoin="round"/>
<path d="M46.9711 36.898H44.8877V26.4813H46.9711C47.5236 26.4813 48.0535 26.7008 48.4442 27.0915C48.8349 27.4822 49.0544 28.0121 49.0544 28.5647V34.8147C49.0544 35.3672 48.8349 35.8971 48.4442 36.2878C48.0535 36.6785 47.5236 36.898 46.9711 36.898Z" fill="#F9A4A5" stroke="#00303E" stroke-width="1.25" stroke-linecap="round" stroke-linejoin="round"/>
<path d="M5.30438 26.4814V25.4397C5.30438 20.1907 7.38957 15.1566 11.1012 11.4449C14.8129 7.73326 19.847 5.64807 25.096 5.64807C30.3451 5.64807 35.3792 7.73326 39.0909 11.4449C42.8025 15.1566 44.8877 20.1907 44.8877 25.4397V26.4814" stroke="#00303E" stroke-width="1.25" stroke-linecap="round" stroke-linejoin="round"/>
<path d="M37.5961 30.6479C37.5961 27.3327 36.2791 24.1533 33.9349 21.8091C31.5907 19.4649 28.4113 18.1479 25.0961 18.1479C21.7808 18.1479 18.6014 19.4649 16.2572 21.8091C13.913 24.1533 12.5961 27.3327 12.5961 30.6479V32.7313C12.5961 36.0465 13.913 39.2259 16.2572 41.5701C18.6014 43.9143 21.7808 45.2313 25.0961 45.2313C28.4113 45.2313 31.5907 43.9143 33.9349 41.5701C36.2791 39.2259 37.5961 36.0465 37.5961 32.7313V30.6479Z" fill="#F7DCDC"/>
<path d="M25.0961 18.1479C21.7808 18.1479 18.6014 19.4649 16.2572 21.8091C13.913 24.1533 12.5961 27.3327 12.5961 30.6479V32.7313C12.5961 33.0813 12.6106 33.4292 12.6398 33.7729C12.9018 30.6496 14.3276 27.7387 16.6347 25.617C18.9418 23.4954 21.9617 22.3179 25.0961 22.3179C28.2304 22.3179 31.2503 23.4954 33.5574 25.617C35.8645 27.7387 37.2903 30.6496 37.5523 33.7729C37.5815 33.4292 37.5961 33.0813 37.5961 32.7313V30.6479C37.5961 27.3327 36.2791 24.1533 33.9349 21.8091C31.5907 19.4649 28.4113 18.1479 25.0961 18.1479Z" fill="#F7DCDC"/>
<path d="M40.7211 34.8147C40.7211 35.9198 40.2821 36.9796 39.5007 37.761C38.7193 38.5424 37.6595 38.9814 36.5544 38.9814H30.3044C29.981 38.9814 29.662 38.9061 29.3727 38.7615C29.0834 38.6168 28.8318 38.4068 28.6377 38.1481L26.7627 35.6481C26.5687 35.3893 26.317 35.1793 26.0278 35.0347C25.7385 34.89 25.4195 34.8147 25.0961 34.8147C24.7726 34.8147 24.4537 34.89 24.1644 35.0347C23.8751 35.1793 23.6235 35.3893 23.4294 35.6481L21.5544 38.1481C21.3603 38.4068 21.1087 38.6168 20.8194 38.7615C20.5301 38.9061 20.2112 38.9814 19.8877 38.9814H13.6377C12.5327 38.9814 11.4729 38.5424 10.6915 37.761C9.91005 36.9796 9.47107 35.9198 9.47107 34.8147V28.5647C9.47107 27.4597 9.91005 26.3999 10.6915 25.6185C11.4729 24.8371 12.5327 24.3981 13.6377 24.3981H36.5544C37.6595 24.3981 38.7193 24.8371 39.5007 25.6185C40.2821 26.3999 40.7211 27.4597 40.7211 28.5647V34.8147Z" fill="#F7DCDC"/>
<path d="M36.5544 24.3981H13.6377C12.5327 24.3981 11.4729 24.8371 10.6915 25.6185C9.91005 26.3999 9.47107 27.4597 9.47107 28.5647H40.7211C40.7211 27.4597 40.2821 26.3999 39.5007 25.6185C38.7193 24.8371 37.6595 24.3981 36.5544 24.3981Z" fill="white"/>
<path d="M40.7211 34.8147C40.7211 35.9198 40.2821 36.9796 39.5007 37.761C38.7193 38.5424 37.6595 38.9814 36.5544 38.9814H30.3044C29.981 38.9814 29.662 38.9061 29.3727 38.7615C29.0834 38.6168 28.8318 38.4068 28.6377 38.1481L26.7627 35.6481C26.5687 35.3893 26.317 35.1793 26.0278 35.0347C25.7385 34.89 25.4195 34.8147 25.0961 34.8147C24.7726 34.8147 24.4537 34.89 24.1644 35.0347C23.8751 35.1793 23.6235 35.3893 23.4294 35.6481L21.5544 38.1481C21.3603 38.4068 21.1087 38.6168 20.8194 38.7615C20.5301 38.9061 20.2112 38.9814 19.8877 38.9814H13.6377C12.5327 38.9814 11.4729 38.5424 10.6915 37.761C9.91005 36.9796 9.47107 35.9198 9.47107 34.8147V28.5647C9.47107 27.4597 9.91005 26.3999 10.6915 25.6185C11.4729 24.8371 12.5327 24.3981 13.6377 24.3981H36.5544C37.6595 24.3981 38.7193 24.8371 39.5007 25.6185C40.2821 26.3999 40.7211 27.4597 40.7211 28.5647V34.8147Z" stroke="#00303E" stroke-width="1.25" stroke-linecap="round" stroke-linejoin="round"/>
<path d="M18.8461 28.5647H31.3461" stroke="#00303E" stroke-width="1.25" stroke-linecap="round" stroke-linejoin="round"/>
<path d="M35.9294 24.4188C34.8342 22.5119 33.2554 20.9276 31.3522 19.8259C29.449 18.7242 27.2889 18.144 25.0898 18.144C22.8907 18.144 20.7306 18.7242 18.8274 19.8259C16.9242 20.9276 15.3454 22.5119 14.2502 24.4188" stroke="#00303E" stroke-width="1.25" stroke-linecap="round" stroke-linejoin="round"/>
<path d="M18.2211 43.1481C20.2535 44.5063 22.6432 45.2313 25.0877 45.2313C27.5323 45.2313 29.9219 44.5063 31.9544 43.1481" stroke="#00303E" stroke-width="1.25" stroke-linecap="round" stroke-linejoin="round"/>
</g>
<defs>
<clipPath id="clip0_87_411">
<rect width="50" height="50" fill="white" transform="translate(0.0960693 0.439697)"/>
</clipPath>
</defs>
</svg>
