<svg width="51" height="51" viewBox="0 0 51 51" fill="none" xmlns="http://www.w3.org/2000/svg">
<path d="M12.8682 25.4397C12.8682 28.7549 14.1851 31.9343 16.5293 34.2785C18.8735 36.6227 22.053 37.9397 25.3682 37.9397C28.6834 37.9397 31.8628 36.6227 34.207 34.2785C36.5512 31.9343 37.8682 28.7549 37.8682 25.4397C37.8682 22.1245 36.5512 18.9451 34.207 16.6009C31.8628 14.2567 28.6834 12.9397 25.3682 12.9397C22.053 12.9397 18.8735 14.2567 16.5293 16.6009C14.1851 18.9451 12.8682 22.1245 12.8682 25.4397Z" fill="#F7DCDC"/>
<path d="M8.70151 25.4396C8.70151 29.8599 10.4575 34.0991 13.5831 37.2247C16.7087 40.3503 20.9479 42.1063 25.3682 42.1063C29.7884 42.1063 34.0277 40.3503 37.1533 37.2247C40.2789 34.0991 42.0348 29.8599 42.0348 25.4396C42.0348 21.0193 40.2789 16.7801 37.1533 13.6545C34.0277 10.5289 29.7884 8.77295 25.3682 8.77295C20.9479 8.77295 16.7087 10.5289 13.5831 13.6545C10.4575 16.7801 8.70151 21.0193 8.70151 25.4396Z" stroke="#00303E" stroke-width="1.25" stroke-linecap="round" stroke-linejoin="round"/>
<path d="M25.3682 2.52307V8.77307" stroke="#00303E" stroke-width="1.25" stroke-linecap="round" stroke-linejoin="round"/>
<path d="M25.3682 42.1063V48.3563" stroke="#00303E" stroke-width="1.25" stroke-linecap="round" stroke-linejoin="round"/>
<path d="M48.2848 25.473H42.0348" stroke="#00303E" stroke-width="1.25" stroke-linecap="round" stroke-linejoin="round"/>
<path d="M8.70151 25.473H2.45151" stroke="#00303E" stroke-width="1.25" stroke-linecap="round" stroke-linejoin="round"/>
</svg>
