<svg width="51" height="51" viewBox="0 0 51 51" fill="none" xmlns="http://www.w3.org/2000/svg">
<path d="M5.59287 9.43555V24.3516C5.58499 29.1914 7.04094 33.9205 9.76953 37.9179C12.4981 41.9153 16.3718 44.9941 20.8819 46.75L22.9659 47.5586C24.3546 48.0957 25.8937 48.0957 27.2823 47.5586L29.3663 46.75C33.8764 44.9941 37.7501 41.9153 40.4787 37.9179C43.2073 33.9205 44.6633 29.1914 44.6554 24.3516V9.43555C44.66 8.85921 44.4986 8.29372 44.1903 7.80673C43.882 7.31973 43.44 6.93184 42.9171 6.68946C37.3114 4.22687 31.2466 2.98264 25.1241 3.03907C19.0016 2.98264 12.9369 4.22687 7.33115 6.68946C6.80823 6.93184 6.36621 7.31973 6.05794 7.80673C5.74967 8.29372 5.58821 8.85921 5.59287 9.43555Z" fill="#F9A4A5"/>
<path d="M25.1241 3.03907C19.0016 2.98264 12.9369 4.22687 7.33115 6.68946C6.80823 6.93184 6.36621 7.31973 6.05794 7.80673C5.74967 8.29372 5.58821 8.85921 5.59287 9.43555V24.3516C5.58499 29.1914 7.04094 33.9205 9.76953 37.9179C12.4981 41.9153 16.3718 44.9941 20.8819 46.75L22.9659 47.5586C23.6545 47.8242 24.3861 47.9606 25.1241 47.9609V3.03907Z" fill="#F7DCDC"/>
<path d="M5.59287 9.43555V24.3516C5.58499 29.1914 7.04094 33.9205 9.76953 37.9179C12.4981 41.9153 16.3718 44.9941 20.8819 46.75L22.9659 47.5586C24.3546 48.0957 25.8937 48.0957 27.2823 47.5586L29.3663 46.75C33.8764 44.9941 37.7501 41.9153 40.4787 37.9179C43.2073 33.9205 44.6633 29.1914 44.6554 24.3516V9.43555C44.66 8.85921 44.4986 8.29372 44.1903 7.80673C43.882 7.31973 43.44 6.93184 42.9171 6.68946C37.3114 4.22687 31.2466 2.98264 25.1241 3.03907C19.0016 2.98264 12.9369 4.22687 7.33115 6.68946C6.80823 6.93184 6.36621 7.31973 6.05794 7.80673C5.74967 8.29372 5.58821 8.85921 5.59287 9.43555Z" stroke="#00303E" stroke-width="1.25" stroke-linecap="round" stroke-linejoin="round"/>
<path d="M35.8662 15.7344L24.0791 32.7891L15.1377 23.8437" stroke="#00303E" stroke-width="1.25" stroke-linecap="round" stroke-linejoin="round"/>
</svg>
