<svg width="50" height="51" viewBox="0 0 50 51" fill="none" xmlns="http://www.w3.org/2000/svg">
<g clip-path="url(#clip0_892_1535)">
<path d="M28.722 44.0813C28.3115 42.796 28.1097 41.4533 28.1241 40.1042C28.1241 36.5127 29.5508 33.0684 32.0903 30.5288C34.6299 27.9892 38.0742 26.5625 41.6657 26.5625C42.35 26.6446 43.0397 26.6711 43.7282 26.6417L43.4157 21.2542C31.4692 17.2209 18.5289 17.2209 6.58239 21.2542L6.39697 26.6938C7.03862 26.6085 7.6851 26.5647 8.33239 26.5625C10.4408 26.5631 12.5199 27.0559 14.4042 28.0019C16.2885 28.9478 17.9259 30.3206 19.186 32.0111C20.4461 33.7015 21.2941 35.6628 21.6624 37.7388C22.0306 39.8148 21.9091 41.9481 21.3074 43.9688L28.722 44.0813Z" fill="#F7DCDC"/>
<path d="M11.7035 25.5207C11.6991 23.4104 12.1991 21.3297 13.1618 19.4519C10.9333 19.9203 8.73488 20.5221 6.57848 21.254L6.39307 26.6936C7.0361 26.6081 7.68397 26.5643 8.33265 26.5623C9.49846 26.5612 10.6595 26.711 11.7868 27.0082C11.7317 26.5142 11.7039 26.0176 11.7035 25.5207Z" fill="#F9A4A5"/>
<path d="M43.4168 21.2541C41.2607 20.5219 39.0622 19.9208 36.8335 19.4541C37.7965 21.3311 38.2965 23.4112 38.2918 25.5208C38.2914 26.0178 38.2636 26.5143 38.2085 27.0083C39.3372 26.7108 40.4996 26.5609 41.6668 26.5624C42.3511 26.6445 43.0408 26.6709 43.7293 26.6416L43.4168 21.2541Z" fill="#F9A4A5"/>
<path d="M28.2289 38.4207C26.1085 38.9485 23.891 38.9485 21.7706 38.4207C22.003 40.282 21.8455 42.1714 21.3081 43.9686L28.7227 44.0811C28.3123 42.7958 28.1104 41.4531 28.1248 40.104C28.1247 39.5413 28.1595 38.9791 28.2289 38.4207Z" fill="#F9A4A5"/>
<path d="M7.96191 20.8042C19.0608 17.3709 30.938 17.3709 42.0369 20.8042" stroke="#00303E" stroke-width="1.25" stroke-linecap="round" stroke-linejoin="round"/>
<path d="M24.9998 1.5625C20.2613 1.5625 15.6292 2.96763 11.6893 5.60021C7.74938 8.23278 4.67858 11.9746 2.86523 16.3524C1.05188 20.7302 0.57743 25.5474 1.50187 30.1949C2.4263 34.8423 4.70812 39.1113 8.05875 42.4619C11.4094 45.8126 15.6783 48.0944 20.3258 49.0188C24.9733 49.9433 29.7905 49.4688 34.1683 47.6555C38.5461 45.8421 42.2879 42.7713 44.9205 38.8314C47.5531 34.8914 48.9582 30.2593 48.9582 25.5208C48.9582 19.1667 46.434 13.0728 41.9409 8.57973C37.4479 4.08667 31.354 1.5625 24.9998 1.5625ZM24.9998 43.2292C21.4975 43.2292 18.0737 42.1906 15.1616 40.2448C12.2495 38.299 9.97978 35.5333 8.63948 32.2975C7.29918 29.0617 6.9485 25.5012 7.63178 22.0661C8.31505 18.631 10.0016 15.4757 12.4782 12.9992C14.9547 10.5226 18.11 8.83604 21.5451 8.15276C24.9802 7.46948 28.5408 7.82017 31.7765 9.16047C35.0123 10.5008 37.778 12.7705 39.7238 15.6826C41.6696 18.5947 42.7082 22.0185 42.7082 25.5208C42.7082 30.2174 40.8425 34.7216 37.5215 38.0425C34.2006 41.3635 29.6964 43.2292 24.9998 43.2292Z" fill="#F9A4A5" stroke="#00303E" stroke-width="1.25" stroke-linecap="round" stroke-linejoin="round"/>
<path d="M21.8745 25.521C21.8745 26.3498 22.2038 27.1447 22.7898 27.7307C23.3759 28.3168 24.1707 28.646 24.9995 28.646C25.8283 28.646 26.6232 28.3168 27.2092 27.7307C27.7953 27.1447 28.1245 26.3498 28.1245 25.521C28.1245 24.6922 27.7953 23.8973 27.2092 23.3113C26.6232 22.7252 25.8283 22.396 24.9995 22.396C24.1707 22.396 23.3759 22.7252 22.7898 23.3113C22.2038 23.8973 21.8745 24.6922 21.8745 25.521Z" fill="#F9A4A5" stroke="#00303E" stroke-width="1.25" stroke-linecap="round" stroke-linejoin="round"/>
<path d="M7.3584 26.5979C7.68132 26.575 8.00631 26.5625 8.3334 26.5625C11.9249 26.5625 15.3692 27.9892 17.9088 30.5288C20.4484 33.0683 21.8751 36.5127 21.8751 40.1042C21.8759 41.0441 21.7761 41.9814 21.5771 42.9" stroke="#00303E" stroke-width="1.25" stroke-linecap="round" stroke-linejoin="round"/>
<path d="M28.4143 42.9C28.2086 41.9826 28.1114 41.0442 28.1247 40.1042C28.1247 36.5127 29.5514 33.0683 32.091 30.5288C34.6306 27.9892 38.0749 26.5625 41.6664 26.5625C42.0414 26.5625 42.306 26.6187 42.6706 26.65" stroke="#00303E" stroke-width="1.25" stroke-linecap="round" stroke-linejoin="round"/>
</g>
<defs>
<clipPath id="clip0_892_1535">
<rect width="50" height="50" fill="white" transform="translate(0 0.52124)"/>
</clipPath>
</defs>
</svg>
