<svg width="50" height="51" viewBox="0 0 50 51" fill="none" xmlns="http://www.w3.org/2000/svg">
<path d="M24.9998 5.52148C18.6457 5.52148 12.5518 8.04566 8.05874 12.5387C3.56568 17.0318 1.0415 23.1257 1.0415 29.4798V36.7715C1.0415 37.324 1.261 37.8539 1.6517 38.2446C2.0424 38.6353 2.5723 38.8548 3.12484 38.8548H46.8748C47.4274 38.8548 47.9573 38.6353 48.348 38.2446C48.7387 37.8539 48.9582 37.324 48.9582 36.7715V29.4798C48.9582 23.1257 46.434 17.0318 41.9409 12.5387C37.4479 8.04566 31.354 5.52148 24.9998 5.52148Z" fill="#F9A4A5"/>
<path d="M38.8853 9.95263C35.3011 7.40365 31.0845 5.89043 26.6975 5.57879C22.3104 5.26714 17.9223 6.16911 14.0138 8.18584C10.1054 10.2026 6.82745 13.2562 4.53928 17.0122C2.25112 20.7682 1.04099 25.0816 1.0415 29.4797V36.7714C1.0415 37.3239 1.261 37.8538 1.6517 38.2445C2.0424 38.6352 2.5723 38.8547 3.12484 38.8547H9.98317L38.8853 9.95263Z" fill="#F7DCDC"/>
<path d="M24.9998 5.52148C18.6457 5.52148 12.5518 8.04566 8.05874 12.5387C3.56568 17.0318 1.0415 23.1257 1.0415 29.4798V36.7715C1.0415 37.324 1.261 37.8539 1.6517 38.2446C2.0424 38.6353 2.5723 38.8548 3.12484 38.8548H46.8748C47.4274 38.8548 47.9573 38.6353 48.348 38.2446C48.7387 37.8539 48.9582 37.324 48.9582 36.7715V29.4798C48.9582 23.1257 46.434 17.0318 41.9409 12.5387C37.4479 8.04566 31.354 5.52148 24.9998 5.52148Z" stroke="#00303E" stroke-width="1.25" stroke-linecap="round" stroke-linejoin="round"/>
<path d="M21.8745 29.48C21.8745 30.3088 22.2038 31.1036 22.7898 31.6897C23.3759 32.2757 24.1707 32.605 24.9995 32.605C25.8283 32.605 26.6232 32.2757 27.2092 31.6897C27.7953 31.1036 28.1245 30.3088 28.1245 29.48C28.1245 28.6512 27.7953 27.8563 27.2092 27.2703C26.6232 26.6842 25.8283 26.355 24.9995 26.355C24.1707 26.355 23.3759 26.6842 22.7898 27.2703C22.2038 27.8563 21.8745 28.6512 21.8745 29.48Z" fill="#F9A4A5" stroke="#00303E" stroke-width="1.25" stroke-linecap="round" stroke-linejoin="round"/>
<path d="M27.208 27.2694L37.5226 16.959" stroke="#00303E" stroke-width="1.25" stroke-linecap="round" stroke-linejoin="round"/>
<path d="M5.20801 30.5215H9.37467" stroke="#00303E" stroke-width="1.25" stroke-linecap="round" stroke-linejoin="round"/>
<path d="M44.7912 30.5215H40.6245" stroke="#00303E" stroke-width="1.25" stroke-linecap="round" stroke-linejoin="round"/>
<path d="M43.2835 21.907L39.4355 23.5007" stroke="#00303E" stroke-width="1.25" stroke-linecap="round" stroke-linejoin="round"/>
<path d="M32.5728 11.1943L30.979 15.0443" stroke="#00303E" stroke-width="1.25" stroke-linecap="round" stroke-linejoin="round"/>
<path d="M24.9995 9.68823V13.8549" stroke="#00303E" stroke-width="1.25" stroke-linecap="round" stroke-linejoin="round"/>
<path d="M17.4272 11.1943L19.021 15.0443" stroke="#00303E" stroke-width="1.25" stroke-linecap="round" stroke-linejoin="round"/>
<path d="M11.0063 15.4841L13.948 18.432" stroke="#00303E" stroke-width="1.25" stroke-linecap="round" stroke-linejoin="round"/>
<path d="M6.7168 21.907L10.5626 23.5007" stroke="#00303E" stroke-width="1.25" stroke-linecap="round" stroke-linejoin="round"/>
</svg>
