<svg width="50" height="51" viewBox="0 0 50 51" fill="none" xmlns="http://www.w3.org/2000/svg">
<g clip-path="url(#clip0_40_98)">
<path d="M1.04168 34.8147V3.56466C1.04168 3.01213 1.26117 2.48222 1.65187 2.09152C2.04258 1.70082 2.57248 1.48132 3.12502 1.48132H46.8751C47.4276 1.48132 47.9575 1.70082 48.3482 2.09152C48.7389 2.48222 48.9584 3.01213 48.9584 3.56466V34.8147H1.04168Z" fill="#F9A4A5"/>
<path d="M42.7084 1.48132H3.12502C2.57248 1.48132 2.04258 1.70082 1.65187 2.09152C1.26117 2.48222 1.04168 3.01213 1.04168 3.56466V34.8147H9.37503L42.7084 1.48132Z" fill="#F7DCDC"/>
<path d="M48.9584 38.9815C48.9584 39.534 48.7389 40.0639 48.3482 40.4546C47.9575 40.8453 47.4276 41.0648 46.8751 41.0648H3.12502C2.57248 41.0648 2.04258 40.8453 1.65187 40.4546C1.26117 40.0639 1.04168 39.534 1.04168 38.9815V34.8148H48.9584V38.9815Z" fill="white"/>
<path d="M30.9626 49.3982C29.2361 46.9505 28.251 44.0574 28.125 41.0648H21.875C21.7491 44.0574 20.764 46.9505 19.0375 49.3982H30.9626Z" fill="#F7DCDC" stroke="#00303E" stroke-width="1.25" stroke-linecap="round" stroke-linejoin="round"/>
<path d="M15.625 49.3979H34.3751" stroke="#00303E" stroke-width="1.25" stroke-linecap="round" stroke-linejoin="round"/>
<path d="M1.04168 34.8148H48.9584" stroke="#00303E" stroke-width="1.25" stroke-linecap="round" stroke-linejoin="round"/>
<path d="M3.12502 1.48132H46.8751C46.8751 1.48132 48.9584 1.48132 48.9584 3.56466V38.9814C48.9584 38.9814 48.9584 41.0647 46.8751 41.0647H3.12502C3.12502 41.0647 1.04168 41.0647 1.04168 38.9814V3.56466C1.04168 3.56466 1.04168 1.48132 3.12502 1.48132Z" stroke="#00303E" stroke-width="1.25" stroke-linecap="round" stroke-linejoin="round"/>
<path d="M15.625 19.1897C15.625 20.4209 15.8675 21.6399 16.3387 22.7774C16.8098 23.9148 17.5004 24.9483 18.3709 25.8189C19.2415 26.6894 20.275 27.38 21.4124 27.8511C22.5498 28.3222 23.7689 28.5647 25 28.5647C26.2312 28.5647 27.4503 28.3222 28.5877 27.8511C29.7251 27.38 30.7586 26.6894 31.6292 25.8189C32.4997 24.9483 33.1903 23.9148 33.6614 22.7774C34.1326 21.6399 34.3751 20.4209 34.3751 19.1897C34.3751 17.9586 34.1326 16.7395 33.6614 15.602C33.1903 14.4646 32.4997 13.4311 31.6292 12.5606C30.7586 11.69 29.7251 10.9995 28.5877 10.5283C27.4503 10.0572 26.2312 9.8147 25 9.8147C23.7689 9.8147 22.5498 10.0572 21.4124 10.5283C20.275 10.9995 19.2415 11.69 18.3709 12.5606C17.5004 13.4311 16.8098 14.4646 16.3387 15.602C15.8675 16.7395 15.625 17.9586 15.625 19.1897Z" fill="#F9A4A5"/>
<path d="M18.3709 25.8189C16.6127 24.0608 15.625 21.6762 15.625 19.1898C15.625 16.7033 16.6127 14.3188 18.3709 12.5606C20.129 10.8024 22.5136 9.8147 25 9.8147C27.4865 9.8147 29.8711 10.8024 31.6292 12.5606L18.3709 25.8189Z" fill="#F7DCDC"/>
<path d="M35.4167 11.8979L25 22.3146L20.8334 18.148" stroke="#00303E" stroke-width="1.25" stroke-linecap="round" stroke-linejoin="round"/>
<path d="M34.3751 19.1898C34.3747 21.2282 33.7099 23.211 32.4815 24.8376C31.2531 26.4643 29.528 27.6463 27.5676 28.2046C25.6071 28.7629 23.5181 28.6669 21.6171 27.9314C19.716 27.1958 18.1065 25.8607 17.0323 24.1283C15.9582 22.3959 15.4779 20.3606 15.6643 18.3308C15.8507 16.3009 16.6936 14.3871 18.0653 12.8793C19.437 11.3715 21.2627 10.3518 23.266 9.97477C25.2692 9.59773 27.3407 9.88386 29.1667 10.7898" stroke="#00303E" stroke-width="1.25" stroke-linecap="round" stroke-linejoin="round"/>
</g>
<defs>
<clipPath id="clip0_40_98">
<rect width="50.0001" height="50.0001" fill="white" transform="translate(0 0.439697)"/>
</clipPath>
</defs>
</svg>
