<svg width="50" height="51" viewBox="0 0 50 51" fill="none" xmlns="http://www.w3.org/2000/svg">
<g clip-path="url(#clip0_892_1546)">
<path d="M36.4582 43.645H3.12484C2.5723 43.645 2.0424 43.4255 1.6517 43.0348C1.261 42.6441 1.0415 42.1142 1.0415 41.5617V35.3117C1.0415 34.2066 1.48049 33.1468 2.26189 32.3654C3.04329 31.584 4.1031 31.145 5.20817 31.145H31.2498L36.4582 43.645Z" fill="#F9A4A5"/>
<path d="M5.20817 35.3117H32.9853L31.2498 31.145H5.20817C4.1031 31.145 3.04329 31.584 2.26189 32.3654C1.48049 33.1468 1.0415 34.2066 1.0415 35.3117V39.4784C1.0415 38.3733 1.48049 37.3135 2.26189 36.5321C3.04329 35.7507 4.1031 35.3117 5.20817 35.3117Z" fill="#F7DCDC"/>
<path d="M27.0828 20.7284H11.1245C10.0793 20.7284 9.07237 21.1213 8.30328 21.829C7.5342 22.5367 7.05918 23.5077 6.97243 24.5492L6.24951 31.1451H31.2495L27.0828 20.7284Z" fill="#F9A4A5"/>
<path d="M22.9162 20.7284H11.1245C10.0793 20.7284 9.07237 21.1213 8.30328 21.829C7.5342 22.5367 7.05918 23.5077 6.97243 24.5492L6.24951 31.1451H12.4995L22.9162 20.7284Z" fill="#F7DCDC"/>
<path d="M32.2915 37.3951C32.2915 37.9476 32.511 38.4775 32.9017 38.8682C33.2924 39.2589 33.8223 39.4784 34.3748 39.4784C34.9274 39.4784 35.4573 39.2589 35.848 38.8682C36.2387 38.4775 36.4582 37.9476 36.4582 37.3951C36.4582 36.8426 36.2387 36.3127 35.848 35.922C35.4573 35.5313 34.9274 35.3118 34.3748 35.3118C33.8223 35.3118 33.2924 35.5313 32.9017 35.922C32.511 36.3127 32.2915 36.8426 32.2915 37.3951Z" fill="#F9A4A5"/>
<path d="M35.937 7.70756C35.937 9.22703 36.5406 10.6843 37.615 11.7587C38.6895 12.8331 40.1467 13.4367 41.6662 13.4367C43.1856 13.4367 44.6429 12.8331 45.7173 11.7587C46.7917 10.6843 47.3953 9.22703 47.3953 7.70756C47.3953 6.18809 46.7917 4.73085 45.7173 3.65643C44.6429 2.582 43.1856 1.97839 41.6662 1.97839C40.1467 1.97839 38.6895 2.582 37.615 3.65643C36.5406 4.73085 35.937 6.18809 35.937 7.70756Z" fill="#F7DCDC" stroke="#00303E" stroke-width="1.25" stroke-linecap="round" stroke-linejoin="round"/>
<path d="M48.9578 22.8117C48.9578 20.8778 48.1896 19.0232 46.8222 17.6557C45.4547 16.2882 43.6 15.52 41.6662 15.52C39.7323 15.52 37.8776 16.2882 36.5102 17.6557C35.1427 19.0232 34.3745 20.8778 34.3745 22.8117V29.0617H37.6724L38.5412 39.4784H44.7912L45.6599 29.0617H48.9578V22.8117Z" fill="#F9A4A5" stroke="#00303E" stroke-width="1.25" stroke-linecap="round" stroke-linejoin="round"/>
<path d="M36.4582 43.645H3.12484C2.5723 43.645 2.0424 43.4255 1.6517 43.0348C1.261 42.6441 1.0415 42.1142 1.0415 41.5617V35.3117C1.0415 34.2066 1.48049 33.1468 2.26189 32.3654C3.04329 31.584 4.1031 31.145 5.20817 31.145H31.2498" stroke="#00303E" stroke-width="1.25" stroke-linecap="round" stroke-linejoin="round"/>
<path d="M6.24951 31.1451L6.97243 24.5492C7.05918 23.5077 7.5342 22.5367 8.30328 21.829C9.07237 21.1213 10.0793 20.7284 11.1245 20.7284H27.0828" stroke="#00303E" stroke-width="1.25" stroke-linecap="round" stroke-linejoin="round"/>
<path d="M5.20801 37.3951C5.20801 37.9476 5.4275 38.4775 5.8182 38.8682C6.2089 39.2589 6.73881 39.4784 7.29134 39.4784C7.84388 39.4784 8.37378 39.2589 8.76448 38.8682C9.15518 38.4775 9.37467 37.9476 9.37467 37.3951C9.37467 36.8426 9.15518 36.3127 8.76448 35.922C8.37378 35.5313 7.84388 35.3118 7.29134 35.3118C6.73881 35.3118 6.2089 35.5313 5.8182 35.922C5.4275 36.3127 5.20801 36.8426 5.20801 37.3951Z" fill="#F9A4A5" stroke="#00303E" stroke-width="1.25" stroke-linecap="round" stroke-linejoin="round"/>
<path d="M11.458 43.645V46.77C11.458 47.5988 11.1288 48.3937 10.5427 48.9797C9.95667 49.5658 9.16181 49.895 8.33301 49.895C7.50421 49.895 6.70935 49.5658 6.1233 48.9797C5.53725 48.3937 5.20801 47.5988 5.20801 46.77V43.645H11.458Z" fill="#F9A4A5" stroke="#00303E" stroke-width="1.25" stroke-linecap="round" stroke-linejoin="round"/>
<path d="M36.458 43.645V46.77C36.458 47.5988 36.1288 48.3937 35.5427 48.9797C34.9567 49.5658 34.1618 49.895 33.333 49.895C32.5042 49.895 31.7093 49.5658 31.1233 48.9797C30.5372 48.3937 30.208 47.5988 30.208 46.77V43.645H36.458Z" fill="#F9A4A5" stroke="#00303E" stroke-width="1.25" stroke-linecap="round" stroke-linejoin="round"/>
<path d="M1.0415 26.9784L6.24984 31.1451" stroke="#00303E" stroke-width="1.25" stroke-linecap="round" stroke-linejoin="round"/>
<path d="M34.3748 39.4784C33.8223 39.4784 33.2924 39.2589 32.9017 38.8682C32.511 38.4775 32.2915 37.9476 32.2915 37.3951C32.2915 36.8426 32.511 36.3127 32.9017 35.922C33.2924 35.5313 33.8223 35.3118 34.3748 35.3118" stroke="#00303E" stroke-width="1.25" stroke-linecap="round" stroke-linejoin="round"/>
<path d="M13.5415 16.5618V13.4368" stroke="#00303E" stroke-width="1.25" stroke-linecap="round" stroke-linejoin="round"/>
<path d="M13.5415 9.27002V7.18669C13.5415 6.91042 13.6513 6.64547 13.8466 6.45012C14.042 6.25477 14.3069 6.14502 14.5832 6.14502H16.6665" stroke="#00303E" stroke-width="1.25" stroke-linecap="round" stroke-linejoin="round"/>
<path d="M21.2124 6.14502H24.9999" stroke="#00303E" stroke-width="1.25" stroke-linecap="round" stroke-linejoin="round"/>
<path d="M29.1665 6.14502H32.2915" stroke="#00303E" stroke-width="1.25" stroke-linecap="round" stroke-linejoin="round"/>
</g>
<defs>
<clipPath id="clip0_892_1546">
<rect width="50" height="50" fill="white" transform="translate(0 0.936768)"/>
</clipPath>
</defs>
</svg>
